<svg width="239" height="239" viewBox="0 0 239 239" fill="none" xmlns="http://www.w3.org/2000/svg">
<mask id="mask0_113_3302" style="mask-type:alpha" maskUnits="userSpaceOnUse" x="0" y="0" width="239" height="239">
<rect width="239" height="239" rx="16" fill="#F4F4F4"/>
</mask>
<g mask="url(#mask0_113_3302)">
<rect width="239" height="239" rx="16" fill="#F4F4F4"/>
<path d="M173.5 117L239.5 -30L-15.5 -38L-29 174.5L173.5 117Z" fill="#FFE3BD"/>
</g>
<g filter="url(#filter0_d_113_3302)">
<rect x="97" y="40" width="46" height="80" rx="23" stroke="#1B4B66" stroke-width="10" shape-rendering="crispEdges"/>
</g>
<g filter="url(#filter1_d_113_3302)">
<path d="M66.7077 81.6514C66.8768 80.6962 67.707 80 68.6771 80H169.323C170.293 80 171.123 80.6962 171.292 81.6514L190.584 190.651C190.801 191.876 189.859 193 188.615 193H49.3851C48.1411 193 47.1989 191.876 47.4157 190.651L66.7077 81.6514Z" fill="#1B4B66"/>
</g>
<mask id="mask1_113_3302" style="mask-type:alpha" maskUnits="userSpaceOnUse" x="47" y="80" width="144" height="113">
<path d="M66.7077 81.6514C66.8768 80.6962 67.707 80 68.6771 80H169.323C170.293 80 171.123 80.6962 171.292 81.6514L190.584 190.651C190.801 191.876 189.859 193 188.615 193H49.3851C48.1411 193 47.1989 191.876 47.4157 190.651L66.7077 81.6514Z" fill="#1B4B66"/>
</mask>
<g mask="url(#mask1_113_3302)">
<path d="M81 156.5L46 125.5L6.5 136.5L55.5 228L230.5 230.5L203 42L81 156.5Z" fill="#0C3E42"/>
</g>
<circle cx="170.5" cy="149.5" r="30.5" fill="#06272A"/>
<path fill-rule="evenodd" clip-rule="evenodd" d="M187.698 174.693C195.729 169.199 201 159.965 201 149.5C201 135.245 191.221 123.274 178.005 119.93L187.698 174.693Z" fill="#E8D0AF"/>
<circle cx="167.5" cy="146.5" r="30.5" fill="#246E74"/>
<path d="M168 152.027L168 131" stroke="white" stroke-width="7" stroke-linecap="round" stroke-linejoin="round"/>
<path d="M168 163.027L168 163" stroke="white" stroke-width="7" stroke-linecap="round" stroke-linejoin="round"/>
<rect x="89" y="76" width="16" height="4" fill="#F7DDBA"/>
<rect x="134" y="76" width="16" height="4" fill="#F7DDBA"/>
<rect x="79" y="93" width="80" height="4" rx="2" fill="#5E9397"/>
<rect x="90" y="102" width="58" height="4" rx="2" fill="#5E9397"/>
<defs>
<filter id="filter0_d_113_3302" x="92" y="35" width="62" height="96" filterUnits="userSpaceOnUse" color-interpolation-filters="sRGB">
<feFlood flood-opacity="0" result="BackgroundImageFix"/>
<feColorMatrix in="SourceAlpha" type="matrix" values="0 0 0 0 0 0 0 0 0 0 0 0 0 0 0 0 0 0 127 0" result="hardAlpha"/>
<feOffset dx="6" dy="6"/>
<feComposite in2="hardAlpha" operator="out"/>
<feColorMatrix type="matrix" values="0 0 0 0 0.909804 0 0 0 0 0.815686 0 0 0 0 0.686275 0 0 0 1 0"/>
<feBlend mode="normal" in2="BackgroundImageFix" result="effect1_dropShadow_113_3302"/>
<feBlend mode="normal" in="SourceGraphic" in2="effect1_dropShadow_113_3302" result="shape"/>
</filter>
<filter id="filter1_d_113_3302" x="47.3843" y="80" width="149.231" height="119" filterUnits="userSpaceOnUse" color-interpolation-filters="sRGB">
<feFlood flood-opacity="0" result="BackgroundImageFix"/>
<feColorMatrix in="SourceAlpha" type="matrix" values="0 0 0 0 0 0 0 0 0 0 0 0 0 0 0 0 0 0 127 0" result="hardAlpha"/>
<feOffset dx="6" dy="6"/>
<feComposite in2="hardAlpha" operator="out"/>
<feColorMatrix type="matrix" values="0 0 0 0 0.909804 0 0 0 0 0.815686 0 0 0 0 0.686275 0 0 0 1 0"/>
<feBlend mode="normal" in2="BackgroundImageFix" result="effect1_dropShadow_113_3302"/>
<feBlend mode="normal" in="SourceGraphic" in2="effect1_dropShadow_113_3302" result="shape"/>
</filter>
</defs>
</svg>
