<svg width="261" height="262" viewBox="0 0 261 262" fill="none" xmlns="http://www.w3.org/2000/svg">
<rect x="0.0976562" y="0.559998" width="260.767" height="260.767" rx="17.4572" fill="#F4F4F4"/>
<mask id="mask0_93_2306" style="mask-type:alpha" maskUnits="userSpaceOnUse" x="0" y="0" width="261" height="262">
<rect x="0.0976562" y="0.559998" width="260.767" height="260.767" rx="17.4572" fill="#F4F4F4"/>
</mask>
<g mask="url(#mask0_93_2306)">
<rect x="0.0976562" y="0.559998" width="260.767" height="260.767" rx="17.4572" fill="#F4F4F4"/>
<path d="M189.399 128.216L261.41 -32.1723L-16.8139 -40.9009L-31.5434 190.953L189.399 128.216Z" fill="#FFE3BD"/>
</g>
<g filter="url(#filter0_d_93_2306)">
<path d="M64.2384 34.0089C63.5985 33.1935 62.2891 33.646 62.2891 34.6825V226.943C62.2891 227.98 63.5985 228.432 64.2384 227.617L78.3424 209.646C78.7793 209.089 79.6222 209.089 80.059 209.646L95.2541 229.007C95.6909 229.564 96.5338 229.564 96.9707 229.007L112.166 209.646C112.603 209.089 113.446 209.089 113.882 209.646L129.077 229.007C129.514 229.564 130.357 229.564 130.794 229.007L145.989 209.646C146.426 209.089 147.269 209.089 147.706 209.646L162.901 229.007C163.338 229.564 164.18 229.564 164.617 229.007L179.812 209.646C180.249 209.089 181.092 209.089 181.529 209.646L195.633 227.617C196.273 228.432 197.582 227.98 197.582 226.943V34.6825C197.582 33.646 196.273 33.1935 195.633 34.0089L181.529 51.9801C181.092 52.5367 180.249 52.5367 179.812 51.9801L164.617 32.6186C164.18 32.062 163.338 32.062 162.901 32.6186L147.706 51.9801C147.269 52.5367 146.426 52.5367 145.989 51.9801L130.794 32.6186C130.357 32.062 129.514 32.062 129.077 32.6186L113.882 51.9801C113.446 52.5367 112.603 52.5367 112.166 51.9801L96.9707 32.6186C96.5338 32.062 95.6909 32.062 95.2541 32.6186L80.059 51.9801C79.6222 52.5367 78.7793 52.5367 78.3424 51.9801L64.2384 34.0089Z" fill="#1B4B66"/>
</g>
<rect x="79.7461" y="72.5709" width="99.2878" height="6.54645" rx="2.18215" fill="#5E9397"/>
<rect x="79.7461" y="92.2103" width="81.8306" height="6.54645" rx="2.18215" fill="#5E9397"/>
<rect x="79.7461" y="111.85" width="89.4681" height="6.54645" rx="2.18215" fill="#5E9397"/>
<rect x="79.7461" y="131.489" width="81.8306" height="6.54645" rx="2.18215" fill="#5E9397"/>
<rect x="79.7461" y="151.128" width="67.6466" height="6.54645" rx="2.18215" fill="#5E9397"/>
<rect x="79.7461" y="170.768" width="50.1894" height="6.54645" rx="2.18215" fill="#5E9397"/>
<circle cx="181.763" cy="164.767" r="33.2778" fill="#0E3C40"/>
<path fill-rule="evenodd" clip-rule="evenodd" d="M197.584 194.05V135.483C207.98 141.112 215.041 152.115 215.041 164.767C215.041 177.419 207.98 188.422 197.584 194.05Z" fill="#E8D0AF"/>
<circle cx="178.49" cy="161.494" r="33.2778" fill="#246E74"/>
<path d="M163.76 163.979L173.458 174.162L194.31 153.31" stroke="white" stroke-width="7.63752" stroke-linecap="round" stroke-linejoin="round"/>
<defs>
<filter id="filter0_d_93_2306" x="62.2891" y="32.2012" width="141.839" height="203.77" filterUnits="userSpaceOnUse" color-interpolation-filters="sRGB">
<feFlood flood-opacity="0" result="BackgroundImageFix"/>
<feColorMatrix in="SourceAlpha" type="matrix" values="0 0 0 0 0 0 0 0 0 0 0 0 0 0 0 0 0 0 127 0" result="hardAlpha"/>
<feOffset dx="6.54645" dy="6.54645"/>
<feComposite in2="hardAlpha" operator="out"/>
<feColorMatrix type="matrix" values="0 0 0 0 0.909804 0 0 0 0 0.815686 0 0 0 0 0.686275 0 0 0 1 0"/>
<feBlend mode="normal" in2="BackgroundImageFix" result="effect1_dropShadow_93_2306"/>
<feBlend mode="normal" in="SourceGraphic" in2="effect1_dropShadow_93_2306" result="shape"/>
</filter>
</defs>
</svg>
