<svg width="28" height="24" viewBox="0 0 28 24" fill="none" xmlns="http://www.w3.org/2000/svg">
<path d="M2.00591 9.49899H5.60957V23.9136H2.00591C1.68732 23.9136 1.38179 23.7871 1.15652 23.5618C0.931244 23.3365 0.804688 23.031 0.804688 22.7124V10.7002C0.804687 10.3816 0.931244 10.0761 1.15652 9.85082C1.38179 9.62555 1.68732 9.49899 2.00591 9.49899ZM8.36396 7.94581L16.0518 0.258007C16.1539 0.155536 16.2897 0.0934005 16.434 0.0830277C16.5784 0.0726549 16.7216 0.114742 16.8374 0.20155L17.862 0.97033C18.1466 1.18396 18.3615 1.47707 18.4797 1.81269C18.598 2.14832 18.6141 2.51143 18.5263 2.85625L17.1413 8.29777H24.8291C25.4662 8.29777 26.0773 8.55088 26.5279 9.00143C26.9784 9.45197 27.2315 10.063 27.2315 10.7002V13.2276C27.2318 13.5415 27.1706 13.8525 27.0513 14.1429L23.3336 23.1701C23.2429 23.3902 23.0888 23.5783 22.891 23.7107C22.6932 23.8431 22.4605 23.9137 22.2224 23.9136H9.21322C8.89464 23.9136 8.58911 23.7871 8.36383 23.5618C8.13856 23.3365 8.012 23.031 8.012 22.7124V8.79507C8.01207 8.47652 8.13867 8.17103 8.36396 7.94581Z" fill="#1B4B66"/>
</svg>
