<svg width="239" height="239" viewBox="0 0 239 239" fill="none" xmlns="http://www.w3.org/2000/svg">
<mask id="mask0_1111_8096" style="mask-type:alpha" maskUnits="userSpaceOnUse" x="0" y="0" width="239" height="239">
<rect width="239" height="239" rx="16" fill="#F4F4F4"/>
</mask>
<g mask="url(#mask0_1111_8096)">
<rect width="239" height="239" rx="16" fill="#F4F4F4"/>
<path d="M173.5 117L239.5 -30L-15.5 -38L-29 174.5L173.5 117Z" fill="#FFE3BD"/>
</g>
<g filter="url(#filter0_d_1111_8096)">
<path d="M119.006 81.801C137.563 63.8607 166.24 64.4561 184.117 83.7405C201.987 103.033 202.603 133.759 185.981 153.8L125.591 218.921C122.029 222.762 115.953 222.761 112.392 218.92L52.0157 153.8C35.3944 133.759 36.0185 102.982 53.8801 83.7405C71.7733 64.4817 100.394 63.8352 119.006 81.801Z" fill="#1B4B66"/>
</g>
<mask id="mask1_1111_8096" style="mask-type:alpha" maskUnits="userSpaceOnUse" x="40" y="68" width="158" height="154">
<path d="M119.006 81.801C137.563 63.8607 166.24 64.4561 184.117 83.7405C201.987 103.033 202.603 133.759 185.981 153.8L125.591 218.921C122.029 222.762 115.953 222.761 112.392 218.92L52.0157 153.8C35.3944 133.759 36.0185 102.982 53.8801 83.7405C71.7733 64.4817 100.394 63.8352 119.006 81.801Z" fill="#1B4B66"/>
</mask>
<g mask="url(#mask1_1111_8096)">
<path d="M130.172 109.981C57.9892 117.376 30.1282 161.251 29.3783 162.45C47.3852 181.219 84.5078 220.453 88.9426 227.231C94.486 235.702 170.758 217.104 173.194 216.543C175.63 215.982 232.976 92.9668 230.992 88.8062C229.404 85.4777 210.979 53.9083 201.965 38.5396C202.095 59.8888 187.918 104.066 130.172 109.981Z" fill="#113F43"/>
</g>
<circle cx="171.5" cy="146.5" r="30.5" fill="#06272A"/>
<path fill-rule="evenodd" clip-rule="evenodd" d="M165.094 176.326C167.16 176.768 169.303 177 171.501 177C188.346 177 202.001 163.345 202.001 146.5C202.001 140.37 200.193 134.663 197.081 129.882C195.477 138.529 191.777 146.814 185.983 153.801L165.094 176.326Z" fill="#E8D0AF"/>
<circle cx="168.5" cy="143.5" r="30.5" fill="#246E74"/>
<defs>
<filter id="filter0_d_1111_8096" x="40" y="68.7946" width="164" height="159.007" filterUnits="userSpaceOnUse" color-interpolation-filters="sRGB">
<feFlood flood-opacity="0" result="BackgroundImageFix"/>
<feColorMatrix in="SourceAlpha" type="matrix" values="0 0 0 0 0 0 0 0 0 0 0 0 0 0 0 0 0 0 127 0" result="hardAlpha"/>
<feOffset dx="6" dy="6"/>
<feComposite in2="hardAlpha" operator="out"/>
<feColorMatrix type="matrix" values="0 0 0 0 0.909804 0 0 0 0 0.815686 0 0 0 0 0.686275 0 0 0 1 0"/>
<feBlend mode="normal" in2="BackgroundImageFix" result="effect1_dropShadow_1111_8096"/>
<feBlend mode="normal" in="SourceGraphic" in2="effect1_dropShadow_1111_8096" result="shape"/>
</filter>
</defs>
</svg>
