<svg width="25" height="24" viewBox="0 0 25 24" fill="none" xmlns="http://www.w3.org/2000/svg">
<path d="M20.2789 6.75H5.12142C4.93685 6.75 4.75876 6.81806 4.62123 6.94115C4.4837 7.06425 4.39639 7.23373 4.37601 7.41718L3.04267 19.4172C3.03102 19.522 3.04162 19.6281 3.07377 19.7286C3.10592 19.829 3.15889 19.9216 3.22924 20.0002C3.29959 20.0788 3.38572 20.1417 3.48202 20.1847C3.57831 20.2278 3.68261 20.25 3.78809 20.25H21.6122C21.7177 20.25 21.822 20.2278 21.9183 20.1847C22.0146 20.1417 22.1007 20.0788 22.171 20.0002C22.2414 19.9216 22.2944 19.829 22.3265 19.7286C22.3587 19.6281 22.3692 19.522 22.3576 19.4172L21.0243 7.41718C21.0039 7.23373 20.9166 7.06425 20.779 6.94115C20.6415 6.81806 20.4634 6.75 20.2789 6.75Z" stroke="white" stroke-width="2" stroke-linecap="round" stroke-linejoin="round"/>
<path d="M8.9502 5.75C8.9502 4.75544 9.34528 3.80161 10.0485 3.09835C10.7518 2.39509 11.7056 2 12.7002 2C13.6948 2 14.6486 2.39509 15.3518 3.09835C16.0551 3.80161 16.4502 4.75544 16.4502 5.75" stroke="white" stroke-width="2" stroke-linecap="round" stroke-linejoin="round"/>
</svg>
