<svg width="19" height="19" viewBox="0 0 19 19" fill="none" xmlns="http://www.w3.org/2000/svg">
<path d="M8.861 17.7746L1.2985 10.2121C1.18392 10.0975 1.10256 9.97337 1.05444 9.83969C1.00708 9.70601 0.983398 9.56278 0.983398 9.41C0.983398 9.25722 1.00708 9.11399 1.05444 8.98031C1.10256 8.84663 1.18392 8.7225 1.2985 8.60792L8.861 1.04542C9.07107 0.835349 9.33347 0.725349 9.64819 0.715418C9.96368 0.706252 10.236 0.816251 10.4652 1.04542C10.6943 1.25549 10.8139 1.51788 10.8238 1.83261C10.833 2.14809 10.723 2.42042 10.4938 2.64958L4.87923 8.26417H17.6839C18.0086 8.26417 18.2809 8.37379 18.5009 8.59302C18.7201 8.81302 18.8298 9.08535 18.8298 9.41C18.8298 9.73465 18.7201 10.0066 18.5009 10.2258C18.2809 10.4458 18.0086 10.5558 17.6839 10.5558H4.87923L10.4938 16.1704C10.7039 16.3805 10.8139 16.6478 10.8238 16.9725C10.833 17.2972 10.723 17.5645 10.4938 17.7746C10.2837 18.0037 10.0164 18.1183 9.69173 18.1183C9.36708 18.1183 9.09017 18.0037 8.861 17.7746Z" fill="#1B4B66"/>
</svg>
