<svg width="100" height="87" viewBox="0 0 100 87"  fill="red" xmlns="http://www.w3.org/2000/svg">
<path d="M37.3333 14.293V27.6263H33.4667C29.7333 27.6263 29.4667 27.2263 28.9333 21.893L28.4 16.293L28.2667 21.893C28 28.1596 25.0667 29.7596 23.3333 24.5596L22.2667 21.6263L21.7333 24.5596C21.4667 26.293 20.6667 27.6263 20 27.6263C19.3333 27.6263 18.5333 33.7596 18.4 41.2263L18 54.9596L12.4 55.3596L6.66667 55.7596V69.7596V83.6263H3.33333C1.46667 83.6263 0 84.1596 0 84.9596C0 85.7596 17.6 86.293 50.1333 86.293C83.0667 86.293 99.8667 85.893 99.3333 84.9596C98.9333 84.1596 97.0667 83.6263 95.2 83.6263H92V58.293V32.9596L88.5333 34.293C80.8 37.2263 80 36.5596 80 26.293V16.9596H70.6667H61.3333V11.893V6.8263L50.1333 3.89297C44 2.29296 38.5333 0.959633 38.1333 0.959633C37.7333 0.959633 37.3333 6.95963 37.3333 14.293ZM54 6.8263L59.3333 8.4263L59.7333 46.0263L60 83.6263H50H40V43.493V3.35963L44.2667 4.4263C46.6667 4.8263 51.0667 6.0263 54 6.8263ZM78.6667 28.293V36.8263L73.3333 38.293L68 39.7596V61.6263V83.6263H64.6667H61.3333V51.6263V19.6263H70H78.6667V28.293ZM37.3333 32.293C37.3333 33.893 35.4667 34.293 28.6667 34.293C21.8667 34.293 20 33.893 20 32.293C20 30.693 21.8667 30.293 28.6667 30.293C35.4667 30.293 37.3333 30.693 37.3333 32.293ZM90.6667 39.6263C90.6667 43.493 90.4 43.6263 84.6667 43.6263C81.3333 43.6263 78.6667 44.1596 78.6667 44.9596C78.6667 45.6263 81.3333 46.293 84.6667 46.293C89.7333 46.293 90.6667 46.693 90.6667 48.9596C90.6667 51.2263 89.7333 51.6263 84.6667 51.6263C81.3333 51.6263 78.6667 52.1596 78.6667 52.9596C78.6667 53.6263 81.3333 54.293 84.6667 54.293C89.7333 54.293 90.6667 54.693 90.6667 56.9596C90.6667 59.2263 89.7333 59.6263 84.8 59.6263C81.4667 59.6263 78.4 60.1596 78 60.9596C77.4667 61.7596 79.7333 62.293 83.8667 62.293C89.7333 62.293 90.6667 62.693 90.6667 64.9596C90.6667 67.2263 89.7333 67.6263 84.8 67.6263C81.4667 67.6263 78.4 68.293 78 68.9596C77.4667 69.7596 79.7333 70.293 83.8667 70.293H90.6667V76.9596V83.6263H80.6667H70.6667V62.293V41.093L76.4 39.6263C79.4667 38.8263 83.4667 37.6263 85.3333 36.9596C90.4 35.2263 90.6667 35.3596 90.6667 39.6263ZM37.3333 39.6263C37.3333 42.0263 36.4 42.293 28.6667 42.293C20.9333 42.293 20 42.0263 20 39.6263C20 37.2263 20.9333 36.9596 28.6667 36.9596C36.4 36.9596 37.3333 37.2263 37.3333 39.6263ZM37.3333 47.6263C37.3333 50.0263 36.4 50.293 28.6667 50.293C20.9333 50.293 20 50.0263 20 47.6263C20 45.2263 20.9333 44.9596 28.6667 44.9596C36.4 44.9596 37.3333 45.2263 37.3333 47.6263ZM37.3333 55.6263C37.3333 57.3596 36.4 58.293 34.6667 58.293C33.2 58.293 32 57.6263 32 56.9596C32 56.1596 29.6 55.6263 26.8 55.6263C23.8667 55.6263 21.0667 54.9596 20.6667 54.293C20.1333 53.493 23.0667 52.9596 28.5333 52.9596C36.4 52.9596 37.3333 53.2263 37.3333 55.6263ZM29.3333 70.293V83.6263H19.3333H9.33333V70.293V56.9596H19.3333H29.3333V70.293ZM37.3333 63.6263C37.3333 65.3596 36.4 66.293 34.6667 66.293C32.9333 66.293 32 65.3596 32 63.6263C32 61.893 32.9333 60.9596 34.6667 60.9596C36.4 60.9596 37.3333 61.893 37.3333 63.6263ZM37.3333 71.6263C37.3333 73.3596 36.4 74.293 34.6667 74.293C32.9333 74.293 32 73.3596 32 71.6263C32 69.893 32.9333 68.9596 34.6667 68.9596C36.4 68.9596 37.3333 69.893 37.3333 71.6263ZM37.3333 80.293C37.3333 82.693 36.6667 83.6263 34.6667 83.6263C32.6667 83.6263 32 82.693 32 80.293C32 77.893 32.6667 76.9596 34.6667 76.9596C36.6667 76.9596 37.3333 77.893 37.3333 80.293Z" />
<path d="M45.6001 20.2929C45.6001 22.4263 45.8668 23.2263 46.2668 21.8929C46.5334 20.6929 46.5334 18.8263 46.2668 17.8929C45.8668 17.0929 45.6001 18.0263 45.6001 20.2929Z"  />
<path d="M53.6001 20.2929C53.6001 22.4263 53.8668 23.2263 54.2668 21.8929C54.5334 20.6929 54.5334 18.8263 54.2668 17.8929C53.8668 17.0929 53.6001 18.0263 53.6001 20.2929Z" />
<path d="M45.6001 31.6263C45.6001 33.493 45.8668 34.1596 46.2668 33.2263C46.5334 32.4263 46.5334 30.8263 46.2668 29.893C45.8668 29.093 45.6001 29.7596 45.6001 31.6263Z" />
<path d="M53.6001 31.6263C53.6001 33.493 53.8668 34.1596 54.2668 33.2263C54.5334 32.4263 54.5334 30.8263 54.2668 29.893C53.8668 29.093 53.6001 29.7596 53.6001 31.6263Z" />
<path d="M45.6001 42.9596C45.6001 45.093 45.8668 45.893 46.2668 44.5596C46.5334 43.3596 46.5334 41.493 46.2668 40.5596C45.8668 39.7596 45.6001 40.693 45.6001 42.9596Z" />
<path d="M53.6001 42.9596C53.6001 45.093 53.8668 45.893 54.2668 44.5596C54.5334 43.3596 54.5334 41.493 54.2668 40.5596C53.8668 39.7596 53.6001 40.693 53.6001 42.9596Z" />
<path d="M45.6001 53.6263C45.6001 55.7597 45.8668 56.5597 46.2668 55.2263C46.5334 54.0263 46.5334 52.1597 46.2668 51.2263C45.8668 50.4263 45.6001 51.3597 45.6001 53.6263Z" />
<path d="M53.6001 53.6263C53.6001 55.7597 53.8668 56.5597 54.2668 55.2263C54.5334 54.0263 54.5334 52.1597 54.2668 51.2263C53.8668 50.4263 53.6001 51.3597 53.6001 53.6263Z" />
<path d="M45.6001 64.2929C45.6001 66.4263 45.8668 67.2263 46.2668 65.8929C46.5334 64.6929 46.5334 62.8263 46.2668 61.8929C45.8668 61.0929 45.6001 62.0263 45.6001 64.2929Z" />
<path d="M53.6001 64.2929C53.6001 66.4263 53.8668 67.2263 54.2668 65.8929C54.5334 64.6929 54.5334 62.8263 54.2668 61.8929C53.8668 61.0929 53.6001 62.0263 53.6001 64.2929Z" />
<path d="M45.6001 74.9596C45.6001 77.093 45.8668 77.893 46.2668 76.5596C46.5334 75.3596 46.5334 73.493 46.2668 72.5596C45.8668 71.7596 45.6001 72.693 45.6001 74.9596Z" />
<path d="M53.6001 74.9596C53.6001 77.093 53.8668 77.893 54.2668 76.5596C54.5334 75.3596 54.5334 73.493 54.2668 72.5596C53.8668 71.7596 53.6001 72.693 53.6001 74.9596Z" />
<path d="M14.9333 64.2929C14.9333 66.4263 15.2 67.2263 15.6 65.8929C15.8667 64.6929 15.8667 62.8263 15.6 61.8929C15.2 61.0929 14.9333 62.0263 14.9333 64.2929Z" />
<path d="M22.9333 64.2929C22.9333 66.4263 23.2 67.2263 23.6 65.8929C23.8667 64.6929 23.8667 62.8263 23.6 61.8929C23.2 61.0929 22.9333 62.0263 22.9333 64.2929Z" />
<path d="M14.9333 74.9596C14.9333 77.093 15.2 77.893 15.6 76.5596C15.8667 75.3596 15.8667 73.493 15.6 72.5596C15.2 71.7596 14.9333 72.693 14.9333 74.9596Z" />
<path d="M22.9333 74.9596C22.9333 77.093 23.2 77.893 23.6 76.5596C23.8667 75.3596 23.8667 73.493 23.6 72.5596C23.2 71.7596 22.9333 72.693 22.9333 74.9596Z" />
</svg>
