<svg width="24" height="24" viewBox="0 0 24 24" fill="none" xmlns="http://www.w3.org/2000/svg">
<path d="M13.0999 9.035C12.7811 9.035 12.5141 8.927 12.2989 8.711C12.0829 8.49575 11.9749 8.22875 11.9749 7.91V5.66H9.72485C9.4061 5.66 9.1391 5.55238 8.92385 5.33713C8.70785 5.12113 8.59985 4.85375 8.59985 4.535C8.59985 4.21625 8.70785 3.94888 8.92385 3.73288C9.1391 3.51763 9.4061 3.41 9.72485 3.41H11.9749V1.16C11.9749 0.841254 12.0829 0.573879 12.2989 0.357879C12.5141 0.142629 12.7811 0.0350037 13.0999 0.0350037C13.4186 0.0350037 13.686 0.142629 13.902 0.357879C14.1172 0.573879 14.2249 0.841254 14.2249 1.16V3.41H16.4749C16.7936 3.41 17.061 3.51763 17.277 3.73288C17.4922 3.94888 17.5999 4.21625 17.5999 4.535C17.5999 4.85375 17.4922 5.12113 17.277 5.33713C17.061 5.55238 16.7936 5.66 16.4749 5.66H14.2249V7.91C14.2249 8.22875 14.1172 8.49575 13.902 8.711C13.686 8.927 13.4186 9.035 13.0999 9.035ZM7.47485 23.66C6.8561 23.66 6.3266 23.4399 5.88635 22.9996C5.44535 22.5586 5.22485 22.0288 5.22485 21.41C5.22485 20.7913 5.44535 20.2614 5.88635 19.8204C6.3266 19.3801 6.8561 19.16 7.47485 19.16C8.0936 19.16 8.6231 19.3801 9.06335 19.8204C9.50435 20.2614 9.72485 20.7913 9.72485 21.41C9.72485 22.0288 9.50435 22.5586 9.06335 22.9996C8.6231 23.4399 8.0936 23.66 7.47485 23.66ZM18.7249 23.66C18.1061 23.66 17.5766 23.4399 17.1364 22.9996C16.6954 22.5586 16.4749 22.0288 16.4749 21.41C16.4749 20.7913 16.6954 20.2614 17.1364 19.8204C17.5766 19.3801 18.1061 19.16 18.7249 19.16C19.3436 19.16 19.8735 19.3801 20.3145 19.8204C20.7547 20.2614 20.9749 20.7913 20.9749 21.41C20.9749 22.0288 20.7547 22.5586 20.3145 22.9996C19.8735 23.4399 19.3436 23.66 18.7249 23.66ZM7.47485 18.035C6.61235 18.035 5.96098 17.6645 5.52073 16.9235C5.07973 16.1833 5.07485 15.4475 5.5061 14.7163L7.02485 11.96L2.97485 3.41H1.84985C1.5311 3.41 1.2641 3.302 1.04885 3.086C0.832853 2.87075 0.724854 2.60375 0.724854 2.285C0.724854 1.96625 0.832853 1.69888 1.04885 1.48288C1.2641 1.26763 1.5311 1.16 1.84985 1.16H3.67798C3.88423 1.16 4.0811 1.21625 4.2686 1.32875C4.4561 1.44125 4.59673 1.60063 4.69048 1.80688L9.2186 11.285H17.0936L21.1155 4.00063C21.2092 3.81313 21.3454 3.66763 21.5239 3.56413C21.7016 3.46138 21.8936 3.41 22.0999 3.41C22.5311 3.41 22.8547 3.5975 23.0707 3.9725C23.286 4.3475 23.2905 4.7225 23.0842 5.0975L19.0624 12.3538C18.8561 12.7288 18.5842 13.0194 18.2467 13.2256C17.9092 13.4319 17.5249 13.535 17.0936 13.535H8.71235L7.47485 15.785H19.8499C20.1686 15.785 20.4356 15.8926 20.6509 16.1079C20.8669 16.3239 20.9749 16.5913 20.9749 16.91C20.9749 17.2288 20.8669 17.4958 20.6509 17.711C20.4356 17.927 20.1686 18.035 19.8499 18.035H7.47485Z" fill="#1B4B66"/>
</svg>
