<svg width="64" height="90" viewBox="0 0 64 90"  xmlns="http://www.w3.org/2000/svg">
<path d="M17.7333 0.892964L13.3333 1.4263V19.293C13.3333 38.3596 14.2667 42.6263 19.4667 48.093L22.8 51.5596L14 54.7596C1.33333 59.1596 0 61.4263 0 76.7596C0 84.2263 0.533333 89.293 1.33333 89.293C2.13333 89.293 2.66667 84.093 2.66667 76.2263C2.66667 61.5596 3.73333 59.4263 11.6 57.8263C15.0667 57.1596 16.1333 57.693 19.2 61.693C21.2 64.2263 23.7333 66.2263 25.0667 66.093C27.0667 65.9596 27.3333 67.1596 27.0667 75.9596C26.8 84.7596 27.0667 86.2263 29.3333 87.693C31.4667 89.0263 32.5333 89.0263 34.6667 87.693C36.9333 86.2263 37.2 84.7596 36.9333 75.9596C36.6667 67.1596 36.9333 65.9596 38.9333 66.093C40.2667 66.2263 42.8 64.2263 44.8 61.693C47.8667 57.693 48.9333 57.1596 52.4 57.8263C60.2667 59.4263 61.3333 61.5596 61.3333 76.2263C61.3333 84.093 61.8667 89.293 62.6667 89.293C63.4667 89.293 64 84.2263 64 76.7596C64 61.4263 62.5333 59.1596 50.1333 54.7596C45.3333 53.0263 41.3333 51.293 41.3333 50.7596C41.3333 50.3596 42.4 49.293 43.7333 48.3596C48.4 45.5596 50.6667 38.2263 50.6667 26.3596C50.6667 8.09296 45.4667 1.29296 30.5333 0.626297C25.8667 0.359631 20 0.492964 17.7333 0.892964ZM40 4.6263C44.8 7.15963 48 11.5596 48 15.8263V19.0263L44.9333 16.093C42 13.4263 41.6 13.4263 40 15.293C36.8 19.1596 30.9333 21.293 23.3333 21.293H16V11.9596V2.6263H26C32.4 2.6263 37.6 3.4263 40 4.6263ZM45.6 19.5596C49.0667 22.7596 48.9333 37.693 45.3333 43.693C43.8667 45.9596 42.1333 47.9596 41.3333 47.9596C40.6667 47.9596 40 48.7596 40 49.8263C40 50.893 38.2667 53.0263 36 54.6263L32 57.4263L28 54.6263C25.8667 53.0263 24 50.893 24 49.8263C24 48.7596 23.3333 47.9596 22.6667 47.9596C19.6 47.9596 16 39.293 16 31.5596V23.9596H22.4C26.5333 23.9596 30.8 22.893 34.6667 20.7596C42.1333 16.893 42.5333 16.7596 45.6 19.5596ZM26.6667 55.9596L30 58.6263L26.8 61.4263L23.6 64.093L20.5333 60.3596C17.7333 56.893 17.7333 56.493 19.6 54.893C22.5333 52.7596 22.6667 52.893 26.6667 55.9596ZM44.4 54.893C46.2667 56.493 46.2667 56.893 43.4667 60.3596L40.4 64.093L37.2 61.4263L34 58.6263L37.3333 55.9596C41.3333 52.893 41.4667 52.7596 44.4 54.893ZM34.8 62.093C36.1333 63.8263 36.1333 64.3596 34.5333 65.4263C33.4667 66.093 32.4 66.6263 32 66.6263C31.6 66.6263 30.5333 66.093 29.4667 65.4263C27.8667 64.3596 27.8667 63.8263 29.2 62.093C30.2667 60.893 31.4667 59.9596 32 59.9596C32.5333 59.9596 33.7333 60.893 34.8 62.093ZM34 72.3596C35.3333 79.293 34.2667 85.9596 32 85.9596C30.6667 85.9596 29.8667 84.3596 29.6 81.4263C29.0667 75.5596 30.4 67.9596 32 67.9596C32.6667 67.9596 33.6 69.9596 34 72.3596Z" />
<path d="M25.6001 27.9596C25.6001 29.8263 25.8668 30.4929 26.2668 29.5596C26.5334 28.7596 26.5334 27.1596 26.2668 26.2263C25.8668 25.4263 25.6001 26.0929 25.6001 27.9596Z" fill="#1B4B66"/>
<path d="M37.6001 27.9596C37.6001 29.8263 37.8668 30.4929 38.2668 29.5596C38.5334 28.7596 38.5334 27.1596 38.2668 26.2263C37.8668 25.4263 37.6001 26.0929 37.6001 27.9596Z" />
<path d="M29.0667 40.2263C31.2 41.293 32.8 41.293 35.0667 40.2263C37.6 39.0263 37.3334 38.7596 32 38.7596C26.6667 38.7596 26.4 39.0263 29.0667 40.2263Z" />
<path d="M45.3333 73.2929C45.3333 73.9596 47.1999 74.6263 49.3333 74.6263C51.5999 74.6263 53.3333 73.9596 53.3333 73.2929C53.3333 72.4929 51.5999 71.9596 49.3333 71.9596C47.1999 71.9596 45.3333 72.4929 45.3333 73.2929Z" />
</svg>
