<svg width="23" height="20" viewBox="0 0 23 20" fill="none" xmlns="http://www.w3.org/2000/svg">
<path d="M11.7645 18.2277C11.7645 18.2277 2.20508 12.8744 2.20508 6.37406C2.20527 5.22515 2.60337 4.11177 3.3317 3.2232C4.06002 2.33464 5.07361 1.72575 6.20013 1.50005C7.32665 1.27435 8.49658 1.44578 9.51099 1.98518C10.5254 2.52459 11.3217 3.39867 11.7645 4.45884L11.7645 4.45884C12.2072 3.39868 13.0035 2.52459 14.0179 1.98519C15.0324 1.44578 16.2023 1.27435 17.3288 1.50005C18.4553 1.72575 19.4689 2.33464 20.1972 3.2232C20.9256 4.11176 21.3237 5.22515 21.3239 6.37406C21.3239 12.8744 11.7645 18.2277 11.7645 18.2277Z" stroke="#1B4B66" stroke-width="2.4472" stroke-linecap="round" stroke-linejoin="round"/>
</svg>
