<svg width="25" height="25" viewBox="0 0 25 25" fill="none" xmlns="http://www.w3.org/2000/svg">
<path d="M8.83973 20.81H4.65039C4.45148 20.81 4.26071 20.731 4.12006 20.5903C3.97941 20.4497 3.90039 20.2589 3.90039 20.06V15.8707C3.90039 15.7722 3.91979 15.6746 3.95748 15.5837C3.99517 15.4927 4.05042 15.41 4.12006 15.3403L15.3701 4.09034C15.5107 3.94968 15.7015 3.87067 15.9004 3.87067C16.0993 3.87067 16.2901 3.94968 16.4307 4.09034L20.6201 8.27968C20.7607 8.42033 20.8397 8.61109 20.8397 8.81001C20.8397 9.00892 20.7607 9.19968 20.6201 9.34034L9.37006 20.5903C9.30042 20.66 9.21774 20.7152 9.12674 20.7529C9.03575 20.7906 8.93822 20.81 8.83973 20.81Z" stroke="white" stroke-width="2" stroke-linecap="round" stroke-linejoin="round"/>
<path d="M12.9004 6.56L18.1504 11.81" stroke="white" stroke-width="2" stroke-linecap="round" stroke-linejoin="round"/>
<path d="M10.3048 19.7144L5.15039 14.56" stroke="white" stroke-width="2" stroke-linecap="round" stroke-linejoin="round"/>
</svg>
