<svg width="28" height="28" viewBox="0 0 28 28" fill="none" xmlns="http://www.w3.org/2000/svg">
<path fill-rule="evenodd" clip-rule="evenodd" d="M12.834 5.41C8.56241 5.41 5.09961 8.8728 5.09961 13.1444C5.09961 17.416 8.56241 20.8788 12.834 20.8788C17.1056 20.8788 20.5684 17.416 20.5684 13.1444C20.5684 8.8728 17.1056 5.41 12.834 5.41ZM2.84961 13.1444C2.84961 7.63016 7.31977 3.16 12.834 3.16C18.3482 3.16 22.8184 7.63016 22.8184 13.1444C22.8184 18.6586 18.3482 23.1288 12.834 23.1288C7.31977 23.1288 2.84961 18.6586 2.84961 13.1444Z" fill="#1B4B66"/>
<path fill-rule="evenodd" clip-rule="evenodd" d="M18.3026 18.6138C18.742 18.1744 19.4543 18.1744 19.8936 18.6138L25.0195 23.7396C25.4588 24.179 25.4588 24.8913 25.0195 25.3306C24.5801 25.7699 23.8678 25.7699 23.4285 25.3306L18.3026 20.2048C17.8633 19.7654 17.8633 19.0531 18.3026 18.6138Z" fill="#1B4B66"/>
</svg>
