<svg width="24" height="40" viewBox="0 0 24 40" fill="none" xmlns="http://www.w3.org/2000/svg">
<path d="M9.0835 27.3333C9.0835 24.5208 9.33558 22.4979 9.83975 21.2646C10.3425 20.0326 11.4099 18.6875 13.0418 17.2292C14.4654 15.9792 15.5502 14.8937 16.296 13.9729C17.0432 13.0535 17.4168 12.0035 17.4168 10.8229C17.4168 9.3993 16.9397 8.21875 15.9856 7.28125C15.03 6.34375 13.7016 5.875 12.0002 5.875C10.2293 5.875 8.8835 6.41319 7.96266 7.48958C7.04322 8.56597 6.39252 9.65972 6.01058 10.7708L0.645996 8.47917C1.37516 6.25694 2.71197 4.32986 4.65641 2.69792C6.60086 1.06597 9.04877 0.25 12.0002 0.25C15.646 0.25 18.4502 1.26597 20.4127 3.29792C22.3738 5.32847 23.3543 7.76736 23.3543 10.6146C23.3543 12.3507 22.9814 13.8354 22.2356 15.0687C21.4884 16.3007 20.3161 17.6979 18.7189 19.2604C17.0175 20.8924 15.9849 22.1333 15.621 22.9833C15.2557 23.8347 15.0731 25.2847 15.0731 27.3333H9.0835ZM12.0002 39.8333C10.8543 39.8333 9.87377 39.4257 9.0585 38.6104C8.24183 37.7937 7.8335 36.8125 7.8335 35.6667C7.8335 34.5208 8.24183 33.5396 9.0585 32.7229C9.87377 31.9076 10.8543 31.5 12.0002 31.5C13.146 31.5 14.1272 31.9076 14.9439 32.7229C15.7592 33.5396 16.1668 34.5208 16.1668 35.6667C16.1668 36.8125 15.7592 37.7937 14.9439 38.6104C14.1272 39.4257 13.146 39.8333 12.0002 39.8333Z" fill="black"/>
</svg>
