<svg width="38" height="44" viewBox="0 0 38 44" fill="none" xmlns="http://www.w3.org/2000/svg">
<path d="M33.5833 31.4167V20.5834C32.5417 20.7917 31.5 21.0001 30.4583 21.0001H29.4167V33.5001H8.58333V18.9167C8.58333 13.0834 13.1667 8.50008 19 8.50008C19.2083 5.79175 20.4583 3.50008 22.125 1.62508C21.5 0.791748 20.25 0.166748 19 0.166748C16.7083 0.166748 14.8333 2.04175 14.8333 4.33341V4.95842C8.58333 6.83342 4.41667 12.4584 4.41667 18.9167V31.4167L0.25 35.5834V37.6667H37.75V35.5834L33.5833 31.4167ZM14.8333 39.7501C14.8333 42.0417 16.7083 43.9167 19 43.9167C21.2917 43.9167 23.1667 42.0417 23.1667 39.7501H14.8333ZM37.75 9.54175C37.75 13.5001 34.4167 16.8334 30.4583 16.8334C26.5 16.8334 23.1667 13.5001 23.1667 9.54175C23.1667 5.58341 26.5 2.25008 30.4583 2.25008C34.4167 2.25008 37.75 5.58341 37.75 9.54175Z" fill="black"/>
</svg>
