<svg width="48" height="47" viewBox="0 0 48 47" fill="none" xmlns="http://www.w3.org/2000/svg">
<path d="M19.5662 2.33493L18.8826 1.90622C17.5447 1.08591 15.8748 0.609347 14.4392 1.05661C12.8963 1.53708 11.6658 2.72556 11.0213 4.51071L10.1033 4.03806C8.52126 3.22361 7.69313 3.21091 7.00661 3.5195C6.45876 3.76462 5.88747 4.35446 5.24001 5.21579L13.2869 11.4375C14.5466 11.8476 16.3923 11.8379 18.2381 11.3593C20.0935 10.8808 21.9392 9.94333 23.2869 8.68357L26.324 1.1738C23.6482 -0.940457 21.2068 0.284152 19.5662 2.33493ZM24.7517 9.80661C23.0916 11.4863 20.6209 12.6191 18.697 13.1269C18.0232 13.3027 17.3494 13.4297 16.6951 13.498C16.3338 14.0937 16.031 14.6992 15.7966 15.3047C16.2654 17.6875 17.1443 19.6406 18.4627 21.2422L17.0564 22.414C16.2459 21.4375 15.5232 20.3828 14.9763 19.2109C14.8884 21.4765 15.3963 23.8203 16.2263 26.2617L14.4978 26.8476C12.9744 22.3945 12.4568 17.834 14.5955 13.5371C13.8728 13.4785 13.1892 13.3418 12.5545 13.1172L12.5252 13.1074C12.1052 13.5078 11.7048 13.9277 11.324 14.3672C8.24098 17.9414 6.54274 22.6972 7.43141 26.3984C7.907 28.3808 8.75954 30.2558 9.9861 31.8574C11.783 31.8183 13.4822 31.8574 15.0252 32.4433C15.7576 32.3652 16.5095 32.3164 17.2908 32.3164C20.074 32.3164 22.5935 32.834 24.4978 33.7324C25.24 34.084 25.9138 34.5039 26.4509 34.9824C26.4509 34.4648 26.5291 33.9082 26.6853 33.498C25.8162 32.6777 25.2693 31.6816 25.2693 30.5488C25.2693 28.9765 26.3142 27.6777 27.8279 26.7402C27.8279 26.291 27.9158 25.8613 28.072 25.4511C27.0857 24.6015 26.4509 23.5468 26.4509 22.3164C26.4509 21.5449 26.7048 20.8418 27.1345 20.207C26.7048 19.582 26.4509 18.8789 26.4509 18.1074C26.4509 17.7265 26.5095 17.375 26.617 17.0332C25.6697 16.1933 25.074 15.1582 25.074 13.9668C25.074 12.7851 25.6599 11.7597 26.5974 10.9297C26.0213 10.4804 25.406 10.0996 24.7517 9.80661ZM35.6306 10.0312C33.0916 10.0312 30.7966 10.5683 29.2244 11.3593C27.6423 12.1504 26.9002 13.1269 26.9002 13.9668C26.9002 14.8164 27.6423 15.7929 29.2244 16.584C30.7966 17.375 33.0916 17.9121 35.6306 17.9121C36.7341 17.9121 37.7791 17.8047 38.7459 17.6289V15.9687C40.1033 15.7636 41.2263 15.3926 41.949 14.914V16.6328C43.1697 16.2812 44.3416 14.9824 44.3709 13.9668C44.3709 13.1269 43.6287 12.1504 42.0466 11.3593C40.4646 10.5683 38.1795 10.0312 35.6306 10.0312ZM45.0545 16.6425C44.7322 16.9843 44.3513 17.3066 43.9216 17.5996L43.9412 20.4316C45.1716 19.6992 45.7478 18.8496 45.7478 18.1074C45.7478 17.6386 45.5232 17.1308 45.0545 16.6425ZM28.2771 18.1465C28.3064 18.9863 29.0486 19.9336 30.6013 20.7148C32.1834 21.5156 34.4685 22.0429 37.0173 22.0429C38.6091 22.0429 40.1033 21.8281 41.3826 21.4765L41.4509 18.8203C39.7713 19.4062 37.7791 19.7285 35.6306 19.7285C32.8474 19.7285 30.3181 19.1718 28.4041 18.2148C28.3552 18.1953 28.3162 18.166 28.2771 18.1465ZM28.4724 21.5449C28.3357 21.8086 28.2771 22.0722 28.2771 22.3164C28.2771 23.166 29.0193 24.1425 30.6013 24.9336C32.1834 25.7246 34.4685 26.2519 37.0173 26.2519C38.3064 26.2519 39.5271 26.125 40.6306 25.8808V23.5371C39.4978 23.7519 38.2869 23.8593 37.0173 23.8593C34.2244 23.8593 31.6951 23.3125 29.781 22.3457C29.3025 22.1113 28.8631 21.8379 28.4724 21.5449ZM45.5525 21.5449C44.9568 21.9648 44.4392 22.2773 43.8338 22.541V24.7187C45.1326 23.9668 45.7478 23.0879 45.7478 22.3164C45.7478 22.0722 45.6892 21.8086 45.5525 21.5449ZM46.2849 25.1386C46.0896 25.334 45.8748 25.5195 45.6404 25.7051V28.8691C46.6463 28.1855 47.1345 27.4336 47.1345 26.75C47.1345 26.2324 46.8513 25.6758 46.2849 25.1386ZM29.6736 26.5058C29.6638 26.5937 29.6541 26.6718 29.6541 26.75C29.6541 27.5996 30.3963 28.5664 31.9783 29.3574C33.5603 30.1582 35.8552 30.6855 38.3943 30.6855C39.8494 30.6855 41.2361 30.5097 42.4373 30.2168V27.2968C40.8455 27.8047 38.9998 28.0781 37.0173 28.0781C34.2244 28.0781 31.6951 27.5215 29.781 26.5644C29.742 26.5449 29.7127 26.5254 29.6736 26.5058ZM28.3455 28.5957C27.4959 29.2304 27.0955 29.9238 27.0955 30.5488C27.0955 31.3984 27.8377 32.3652 29.4197 33.166C31.0017 33.957 33.2869 34.4843 35.8357 34.4843C36.7634 34.4843 37.6619 34.416 38.5017 34.289V32.5117H38.3943C35.6013 32.5117 33.072 31.955 31.158 30.9883C29.9373 30.3828 28.9216 29.5722 28.3455 28.5957ZM44.2146 31.584C43.4431 31.8574 42.6033 32.082 41.7048 32.2285V33.4101C41.8904 33.332 42.0759 33.2539 42.2517 33.166C43.2088 32.6777 43.8533 32.1308 44.2146 31.584ZM45.1131 33.3613C44.742 33.7324 44.3123 34.0644 43.8338 34.3672V37.1601C45.1326 36.4179 45.7478 35.539 45.7478 34.7675C45.7478 34.3183 45.5427 33.8301 45.1131 33.3613ZM11.0603 33.6347C10.0642 33.6445 8.99001 33.7715 7.87672 34.0351C5.64919 34.5527 3.73415 35.5 2.48415 36.5449C1.23415 37.5801 0.745864 38.6347 0.892349 39.3867C1.03883 40.1386 1.81032 40.832 3.31422 41.2324C4.81325 41.623 6.90993 41.6426 9.13649 41.125C10.0349 40.9101 10.8748 40.6367 11.6463 40.3144V38.2929C13.072 37.6582 14.1365 36.8965 14.615 36.1543V38.5371C15.7966 37.5215 16.2556 36.5058 16.1189 35.7636C15.9822 35.0117 15.2009 34.3183 13.697 33.9277C12.9451 33.7324 12.0466 33.625 11.0603 33.6347ZM17.3689 34.1426C17.6326 34.5234 17.8181 34.9531 17.9158 35.4316C18.0232 36.0175 17.9744 36.584 17.7986 37.1406C18.7654 37.3945 19.6443 37.7363 20.406 38.166C20.8357 38.4004 21.2361 38.6836 21.5877 38.9765C22.4666 38.7715 23.2088 38.4785 23.7361 38.1269V40.1386C25.3084 39.3965 26.031 38.4883 26.031 37.7656C26.031 37.0332 25.3084 36.125 23.7263 35.3828C22.1541 34.6504 19.8884 34.1523 17.3689 34.1426ZM28.2869 34.6308C28.2771 34.6699 28.2771 34.7187 28.2771 34.7675C28.2771 35.6172 29.0193 36.584 30.6013 37.3847C32.1834 38.1758 34.4685 38.7031 37.0173 38.7031C38.3064 38.7031 39.5271 38.5664 40.6306 38.332V35.7051C39.1853 36.0957 37.5545 36.3105 35.8357 36.3105C33.0427 36.3105 30.5134 35.7539 28.5994 34.7968C28.492 34.7383 28.3845 34.6797 28.2869 34.6308ZM28.5603 38.2734C28.365 38.5957 28.2771 38.9082 28.2771 39.2109C28.2771 40.0605 29.0193 41.0273 30.6013 41.8281C32.1834 42.6191 34.4685 43.1465 37.0173 43.1465C38.3064 43.1465 39.5271 43.0097 40.6306 42.7754V40.1972C39.4978 40.4121 38.2869 40.5293 37.0173 40.5293C34.2244 40.5293 31.6951 39.9726 29.781 39.0058C29.3416 38.791 28.9314 38.5468 28.5603 38.2734ZM45.4646 38.2734C44.8982 38.6543 44.4002 38.957 43.8338 39.2011V41.6035C45.1326 40.8613 45.7478 39.9824 45.7478 39.2109C45.7478 38.9082 45.6599 38.5957 45.4646 38.2734ZM16.8904 38.8008C16.5486 39.2304 16.1482 39.6406 15.699 40.0117C14.1756 41.291 12.0271 42.3261 9.54665 42.9023C8.66188 43.1074 7.78297 43.2343 6.93922 43.3027C7.25172 43.8203 7.80153 44.3281 8.60622 44.7773C9.93727 45.5293 11.8904 46.0371 14.0584 46.0371C15.0447 46.0371 15.9822 45.9297 16.8416 45.7441V43.7129C18.1892 43.5078 19.322 43.1367 20.0447 42.6582V44.4551C21.0213 43.7715 21.49 43 21.49 42.2675C21.49 41.4179 20.8552 40.5097 19.5173 39.7578C18.7947 39.3574 17.8963 39.0254 16.8904 38.8008Z" fill="black"/>
</svg>
