<svg width="34" height="37" viewBox="0 0 34 37" fill="none" xmlns="http://www.w3.org/2000/svg">
<path d="M4.50016 32.5833H10.7502V20.0833H23.2502V32.5833H29.5002V13.8333L17.0002 4.45832L4.50016 13.8333V32.5833ZM4.50016 36.75C3.35433 36.75 2.37377 36.3424 1.5585 35.5271C0.741829 34.7104 0.333496 33.7292 0.333496 32.5833V13.8333C0.333496 13.1736 0.481412 12.5486 0.777246 11.9583C1.07169 11.368 1.47933 10.8819 2.00016 10.5L14.5002 1.12499C14.8821 0.847212 15.2814 0.638879 15.6981 0.49999C16.1147 0.361101 16.5488 0.291656 17.0002 0.291656C17.4516 0.291656 17.8856 0.361101 18.3022 0.49999C18.7189 0.638879 19.1182 0.847212 19.5002 1.12499L32.0002 10.5C32.521 10.8819 32.9293 11.368 33.2252 11.9583C33.5196 12.5486 33.6668 13.1736 33.6668 13.8333V32.5833C33.6668 33.7292 33.2592 34.7104 32.4439 35.5271C31.6272 36.3424 30.646 36.75 29.5002 36.75H19.0835V24.25H14.9168V36.75H4.50016Z" fill="black"/>
</svg>
