<svg width="50" height="50" viewBox="0 0 50 50" fill="none" xmlns="http://www.w3.org/2000/svg">
<path d="M12.5 25L25 12.5L37.5 25L25 37.5L12.5 25Z" fill="black"/>
<path d="M45.922 22.6984L27.3032 4.07652C26.6924 3.46682 25.8647 3.12439 25.0016 3.12439C24.1386 3.12439 23.3109 3.46682 22.7001 4.07652L4.07665 22.6984C3.46695 23.3092 3.12451 24.1369 3.12451 25C3.12451 25.863 3.46695 26.6907 4.07665 27.3015L22.6985 45.9234C23.3093 46.5331 24.1371 46.8755 25.0001 46.8755C25.8631 46.8755 26.6909 46.5331 27.3016 45.9234L45.9235 27.3015C46.5332 26.6907 46.8757 25.863 46.8757 25C46.8757 24.1369 46.5332 23.3092 45.9235 22.6984H45.922ZM25.0001 43.8062L6.1954 25L25.0001 6.19371L43.8063 25L25.0001 43.8062Z" fill="black"/>
</svg>
