<svg width="42" height="42" viewBox="0 0 42 42" fill="none" xmlns="http://www.w3.org/2000/svg">
<path d="M27.8542 35.6667H29.9375V27.3333H27.8542V35.6667ZM33.0625 35.6667H35.1458V27.3333H33.0625V35.6667ZM6.5 12.75H31.5V8.58333H6.5V12.75ZM31.5 41.9167C28.6181 41.9167 26.1618 40.9014 24.1313 38.8708C22.0993 36.8389 21.0833 34.3819 21.0833 31.5C21.0833 28.6181 22.0993 26.1611 24.1313 24.1292C26.1618 22.0986 28.6181 21.0833 31.5 21.0833C34.3819 21.0833 36.8389 22.0986 38.8708 24.1292C40.9014 26.1611 41.9167 28.6181 41.9167 31.5C41.9167 34.3819 40.9014 36.8389 38.8708 38.8708C36.8389 40.9014 34.3819 41.9167 31.5 41.9167ZM0.25 39.8333V4.41667C0.25 3.27083 0.657639 2.28958 1.47292 1.47292C2.28958 0.657639 3.27083 0.25 4.41667 0.25H33.5833C34.7292 0.25 35.7104 0.657639 36.5271 1.47292C37.3424 2.28958 37.75 3.27083 37.75 4.41667V18.3229C37.0903 18.0104 36.4132 17.75 35.7188 17.5417C35.0243 17.3333 34.3125 17.1771 33.5833 17.0729V4.41667H4.41667V33.6875H17.0729C17.2465 34.7639 17.516 35.7882 17.8813 36.7604C18.2451 37.7326 18.7222 38.6528 19.3125 39.5208L19 39.8333L15.875 36.7083L12.75 39.8333L9.625 36.7083L6.5 39.8333L3.375 36.7083L0.25 39.8333ZM6.5 29.4167H17.0729C17.1771 28.6875 17.3333 27.9757 17.5417 27.2813C17.75 26.5868 18.0104 25.9097 18.3229 25.25H6.5V29.4167ZM6.5 21.0833H21.2917C22.6111 19.7986 24.1472 18.7826 25.9 18.0354C27.6542 17.2896 29.5208 16.9167 31.5 16.9167H6.5V21.0833ZM4.41667 33.6875V4.41667V33.6875Z" fill="black"/>
</svg>
