<svg width="46" height="46" viewBox="0 0 46 46" fill="none" xmlns="http://www.w3.org/2000/svg">
<path d="M20.9168 38.8334L10.5002 32.7917C9.84044 32.4098 9.32863 31.898 8.96475 31.2563C8.59947 30.6132 8.41683 29.9271 8.41683 29.198V17.1146C8.41683 16.3855 8.59947 15.6993 8.96475 15.0563C9.32863 14.4146 9.84044 13.9028 10.5002 13.5209L20.9168 7.47921C21.5766 7.09726 22.271 6.90629 23.0002 6.90629C23.7293 6.90629 24.4238 7.09726 25.0835 7.47921L35.5002 13.5209C36.1599 13.9028 36.6724 14.4146 37.0377 15.0563C37.4016 15.6993 37.5835 16.3855 37.5835 17.1146V29.198C37.5835 29.9271 37.4016 30.6132 37.0377 31.2563C36.6724 31.898 36.1599 32.4098 35.5002 32.7917L25.0835 38.8334C24.4238 39.2153 23.7293 39.4063 23.0002 39.4063C22.271 39.4063 21.5766 39.2153 20.9168 38.8334ZM0.0834961 10.5V6.33337C0.0834961 4.59726 0.691135 3.12157 1.90641 1.90629C3.12169 0.691013 4.59738 0.083374 6.3335 0.083374H10.5002V4.25004H6.3335C5.74322 4.25004 5.24877 4.44935 4.85016 4.84796C4.45016 5.24796 4.25016 5.7431 4.25016 6.33337V10.5H0.0834961ZM6.3335 45.9167C4.59738 45.9167 3.12169 45.3091 1.90641 44.0938C0.691135 42.8785 0.0834961 41.4028 0.0834961 39.6667V35.5H4.25016V39.6667C4.25016 40.257 4.45016 40.7514 4.85016 41.15C5.24877 41.55 5.74322 41.75 6.3335 41.75H10.5002V45.9167H6.3335ZM35.5002 45.9167V41.75H39.6668C40.2571 41.75 40.7515 41.55 41.1502 41.15C41.5502 40.7514 41.7502 40.257 41.7502 39.6667V35.5H45.9168V39.6667C45.9168 41.4028 45.3092 42.8785 44.0939 44.0938C42.8786 45.3091 41.4029 45.9167 39.6668 45.9167H35.5002ZM41.7502 10.5V6.33337C41.7502 5.7431 41.5502 5.24796 41.1502 4.84796C40.7515 4.44935 40.2571 4.25004 39.6668 4.25004H35.5002V0.083374H39.6668C41.4029 0.083374 42.8786 0.691013 44.0939 1.90629C45.3092 3.12157 45.9168 4.59726 45.9168 6.33337V10.5H41.7502ZM14.6668 15.9167L12.5835 17.1146V19.5625L20.9168 24.3542V33.9375L23.0002 35.1355L25.0835 33.9375V24.3542L33.4168 19.5625V17.1146L31.3335 15.9167L23.0002 20.7084L14.6668 15.9167Z" fill="black"/>
</svg>
