<svg width="38" height="38" viewBox="0 0 38 38" fill="none" xmlns="http://www.w3.org/2000/svg">
<path fill-rule="evenodd" clip-rule="evenodd" d="M8.58333 2.33333H2.33333V8.58333H8.58333V2.33333ZM2.33333 0.25C1.7808 0.25 1.25089 0.469493 0.860194 0.860194C0.469493 1.25089 0.25 1.7808 0.25 2.33333V8.58333C0.25 9.13587 0.469493 9.66577 0.860194 10.0565C1.25089 10.4472 1.7808 10.6667 2.33333 10.6667H8.58333C9.13587 10.6667 9.66577 10.4472 10.0565 10.0565C10.4472 9.66577 10.6667 9.13587 10.6667 8.58333V2.33333C10.6667 1.7808 10.4472 1.25089 10.0565 0.860194C9.66577 0.469493 9.13587 0.25 8.58333 0.25H2.33333ZM8.58333 15.875H2.33333V22.125H8.58333V15.875ZM2.33333 13.7917C1.7808 13.7917 1.25089 14.0112 0.860194 14.4019C0.469493 14.7926 0.25 15.3225 0.25 15.875V22.125C0.25 22.6775 0.469493 23.2074 0.860194 23.5981C1.25089 23.9888 1.7808 24.2083 2.33333 24.2083H8.58333C9.13587 24.2083 9.66577 23.9888 10.0565 23.5981C10.4472 23.2074 10.6667 22.6775 10.6667 22.125V15.875C10.6667 15.3225 10.4472 14.7926 10.0565 14.4019C9.66577 14.0112 9.13587 13.7917 8.58333 13.7917H2.33333ZM8.58333 29.4167H2.33333V35.6667H8.58333V29.4167ZM2.33333 27.3333C1.7808 27.3333 1.25089 27.5528 0.860194 27.9435C0.469493 28.3342 0.25 28.8641 0.25 29.4167V35.6667C0.25 36.2192 0.469493 36.7491 0.860194 37.1398C1.25089 37.5305 1.7808 37.75 2.33333 37.75H8.58333C9.13587 37.75 9.66577 37.5305 10.0565 37.1398C10.4472 36.7491 10.6667 36.2192 10.6667 35.6667V29.4167C10.6667 28.8641 10.4472 28.3342 10.0565 27.9435C9.66577 27.5528 9.13587 27.3333 8.58333 27.3333H2.33333ZM22.125 2.33333H15.875V8.58333H22.125V2.33333ZM15.875 0.25C15.3225 0.25 14.7926 0.469493 14.4019 0.860194C14.0112 1.25089 13.7917 1.7808 13.7917 2.33333V8.58333C13.7917 9.13587 14.0112 9.66577 14.4019 10.0565C14.7926 10.4472 15.3225 10.6667 15.875 10.6667H22.125C22.6775 10.6667 23.2074 10.4472 23.5981 10.0565C23.9888 9.66577 24.2083 9.13587 24.2083 8.58333V2.33333C24.2083 1.7808 23.9888 1.25089 23.5981 0.860194C23.2074 0.469493 22.6775 0.25 22.125 0.25H15.875ZM22.125 15.875H15.875V22.125H22.125V15.875ZM15.875 13.7917C15.3225 13.7917 14.7926 14.0112 14.4019 14.4019C14.0112 14.7926 13.7917 15.3225 13.7917 15.875V22.125C13.7917 22.6775 14.0112 23.2074 14.4019 23.5981C14.7926 23.9888 15.3225 24.2083 15.875 24.2083H22.125C22.6775 24.2083 23.2074 23.9888 23.5981 23.5981C23.9888 23.2074 24.2083 22.6775 24.2083 22.125V15.875C24.2083 15.3225 23.9888 14.7926 23.5981 14.4019C23.2074 14.0112 22.6775 13.7917 22.125 13.7917H15.875ZM22.125 29.4167H15.875V35.6667H22.125V29.4167ZM15.875 27.3333C15.3225 27.3333 14.7926 27.5528 14.4019 27.9435C14.0112 28.3342 13.7917 28.8641 13.7917 29.4167V35.6667C13.7917 36.2192 14.0112 36.7491 14.4019 37.1398C14.7926 37.5305 15.3225 37.75 15.875 37.75H22.125C22.6775 37.75 23.2074 37.5305 23.5981 37.1398C23.9888 36.7491 24.2083 36.2192 24.2083 35.6667V29.4167C24.2083 28.8641 23.9888 28.3342 23.5981 27.9435C23.2074 27.5528 22.6775 27.3333 22.125 27.3333H15.875ZM35.6667 2.33333H29.4167V8.58333H35.6667V2.33333ZM29.4167 0.25C28.8641 0.25 28.3342 0.469493 27.9435 0.860194C27.5528 1.25089 27.3333 1.7808 27.3333 2.33333V8.58333C27.3333 9.13587 27.5528 9.66577 27.9435 10.0565C28.3342 10.4472 28.8641 10.6667 29.4167 10.6667H35.6667C36.2192 10.6667 36.7491 10.4472 37.1398 10.0565C37.5305 9.66577 37.75 9.13587 37.75 8.58333V2.33333C37.75 1.7808 37.5305 1.25089 37.1398 0.860194C36.7491 0.469493 36.2192 0.25 35.6667 0.25H29.4167ZM35.6667 15.875H29.4167V22.125H35.6667V15.875ZM29.4167 13.7917C28.8641 13.7917 28.3342 14.0112 27.9435 14.4019C27.5528 14.7926 27.3333 15.3225 27.3333 15.875V22.125C27.3333 22.6775 27.5528 23.2074 27.9435 23.5981C28.3342 23.9888 28.8641 24.2083 29.4167 24.2083H35.6667C36.2192 24.2083 36.7491 23.9888 37.1398 23.5981C37.5305 23.2074 37.75 22.6775 37.75 22.125V15.875C37.75 15.3225 37.5305 14.7926 37.1398 14.4019C36.7491 14.0112 36.2192 13.7917 35.6667 13.7917H29.4167ZM35.6667 29.4167H29.4167V35.6667H35.6667V29.4167ZM29.4167 27.3333C28.8641 27.3333 28.3342 27.5528 27.9435 27.9435C27.5528 28.3342 27.3333 28.8641 27.3333 29.4167V35.6667C27.3333 36.2192 27.5528 36.7491 27.9435 37.1398C28.3342 37.5305 28.8641 37.75 29.4167 37.75H35.6667C36.2192 37.75 36.7491 37.5305 37.1398 37.1398C37.5305 36.7491 37.75 36.2192 37.75 35.6667V29.4167C37.75 28.8641 37.5305 28.3342 37.1398 27.9435C36.7491 27.5528 36.2192 27.3333 35.6667 27.3333H29.4167Z" fill="black"/>
</svg>
