<svg width="38" height="42" viewBox="0 0 38 42" fill="none" xmlns="http://www.w3.org/2000/svg">
<path d="M31.5 41.8333C29.7639 41.8333 28.2882 41.2257 27.0729 40.0104C25.8576 38.7951 25.25 37.3194 25.25 35.5833C25.25 35.3402 25.2674 35.0882 25.3021 34.827C25.3368 34.5673 25.3889 34.3333 25.4583 34.125L10.7708 25.5833C10.1806 26.1041 9.52083 26.5118 8.79167 26.8062C8.0625 27.102 7.29861 27.25 6.5 27.25C4.76389 27.25 3.28819 26.6423 2.07292 25.427C0.857639 24.2118 0.25 22.7361 0.25 21C0.25 19.2638 0.857639 17.7882 2.07292 16.5729C3.28819 15.3576 4.76389 14.75 6.5 14.75C7.29861 14.75 8.0625 14.8972 8.79167 15.1916C9.52083 15.4875 10.1806 15.8958 10.7708 16.4166L25.4583 7.87496C25.3889 7.66663 25.3368 7.4326 25.3021 7.17288C25.2674 6.91177 25.25 6.65968 25.25 6.41663C25.25 4.68052 25.8576 3.20482 27.0729 1.98954C28.2882 0.774265 29.7639 0.166626 31.5 0.166626C33.2361 0.166626 34.7118 0.774265 35.9271 1.98954C37.1424 3.20482 37.75 4.68052 37.75 6.41663C37.75 8.15274 37.1424 9.62843 35.9271 10.8437C34.7118 12.059 33.2361 12.6666 31.5 12.6666C30.7014 12.6666 29.9375 12.5187 29.2083 12.2229C28.4792 11.9284 27.8194 11.5208 27.2292 11L12.5417 19.5416C12.6111 19.75 12.6632 19.984 12.6979 20.2437C12.7326 20.5048 12.75 20.7569 12.75 21C12.75 21.243 12.7326 21.4944 12.6979 21.7541C12.6632 22.0152 12.6111 22.25 12.5417 22.4583L27.2292 31C27.8194 30.4791 28.4792 30.0708 29.2083 29.775C29.9375 29.4805 30.7014 29.3333 31.5 29.3333C33.2361 29.3333 34.7118 29.9409 35.9271 31.1562C37.1424 32.3715 37.75 33.8472 37.75 35.5833C37.75 37.3194 37.1424 38.7951 35.9271 40.0104C34.7118 41.2257 33.2361 41.8333 31.5 41.8333ZM31.5 8.49996C32.0903 8.49996 32.5847 8.30065 32.9833 7.90204C33.3833 7.50204 33.5833 7.0069 33.5833 6.41663C33.5833 5.82635 33.3833 5.33121 32.9833 4.93121C32.5847 4.5326 32.0903 4.33329 31.5 4.33329C30.9097 4.33329 30.4153 4.5326 30.0167 4.93121C29.6167 5.33121 29.4167 5.82635 29.4167 6.41663C29.4167 7.0069 29.6167 7.50204 30.0167 7.90204C30.4153 8.30065 30.9097 8.49996 31.5 8.49996ZM6.5 23.0833C7.09028 23.0833 7.58542 22.8833 7.98542 22.4833C8.38403 22.0847 8.58333 21.5902 8.58333 21C8.58333 20.4097 8.38403 19.9145 7.98542 19.5145C7.58542 19.1159 7.09028 18.9166 6.5 18.9166C5.90972 18.9166 5.41458 19.1159 5.01458 19.5145C4.61597 19.9145 4.41667 20.4097 4.41667 21C4.41667 21.5902 4.61597 22.0847 5.01458 22.4833C5.41458 22.8833 5.90972 23.0833 6.5 23.0833ZM31.5 37.6666C32.0903 37.6666 32.5847 37.4666 32.9833 37.0666C33.3833 36.668 33.5833 36.1736 33.5833 35.5833C33.5833 34.993 33.3833 34.4986 32.9833 34.1C32.5847 33.7 32.0903 33.5 31.5 33.5C30.9097 33.5 30.4153 33.7 30.0167 34.1C29.6167 34.4986 29.4167 34.993 29.4167 35.5833C29.4167 36.1736 29.6167 36.668 30.0167 37.0666C30.4153 37.4666 30.9097 37.6666 31.5 37.6666Z" fill="black"/>
</svg>
