<svg width="42" height="39" viewBox="0 0 42 39" fill="none" xmlns="http://www.w3.org/2000/svg">
<path d="M21.2082 32.6458L20.9998 32.8542L20.7707 32.6458C10.8748 23.6667 4.33317 17.7292 4.33317 11.7083C4.33317 7.54167 7.45817 4.41667 11.6248 4.41667C14.8332 4.41667 17.9582 6.5 19.0623 9.33333H22.9373C24.0415 6.5 27.1665 4.41667 30.3748 4.41667C34.5415 4.41667 37.6665 7.54167 37.6665 11.7083C37.6665 17.7292 31.1248 23.6667 21.2082 32.6458ZM30.3748 0.25C26.7498 0.25 23.2707 1.9375 20.9998 4.58333C18.729 1.9375 15.2498 0.25 11.6248 0.25C5.20817 0.25 0.166504 5.27083 0.166504 11.7083C0.166504 19.5625 7.24984 26 17.979 35.7292L20.9998 38.4792L24.0207 35.7292C34.7498 26 41.8332 19.5625 41.8332 11.7083C41.8332 5.27083 36.7915 0.25 30.3748 0.25Z" fill="black"/>
</svg>
