<svg width="44" height="44" viewBox="0 0 44 44" fill="none" xmlns="http://www.w3.org/2000/svg">
<path d="M40.75 12.625H3.25C2.42145 12.6242 1.62708 12.2947 1.0412 11.7088C0.455333 11.1229 0.125827 10.3285 0.125 9.5V3.25C0.125827 2.42145 0.455333 1.62708 1.0412 1.0412C1.62708 0.455333 2.42145 0.125827 3.25 0.125H40.75C41.5785 0.125827 42.3729 0.455333 42.9588 1.0412C43.5447 1.62708 43.8742 2.42145 43.875 3.25V9.5C43.8742 10.3285 43.5447 11.1229 42.9588 11.7088C42.3729 12.2947 41.5785 12.6242 40.75 12.625ZM3.25 3.25V9.5H40.75V3.25H3.25ZM40.75 43.875H3.25C2.42145 43.8742 1.62708 43.5447 1.0412 42.9588C0.455333 42.3729 0.125827 41.5785 0.125 40.75V34.5C0.125827 33.6715 0.455333 32.8771 1.0412 32.2912C1.62708 31.7053 2.42145 31.3758 3.25 31.375H40.75C41.5785 31.3758 42.3729 31.7053 42.9588 32.2912C43.5447 32.8771 43.8742 33.6715 43.875 34.5V40.75C43.8742 41.5785 43.5447 42.3729 42.9588 42.9588C42.3729 43.5447 41.5785 43.8742 40.75 43.875ZM3.25 34.5V40.75H40.75V34.5H3.25ZM40.75 28.25H3.25C2.42145 28.2492 1.62708 27.9197 1.0412 27.3338C0.455333 26.7479 0.125827 25.9535 0.125 25.125V18.875C0.125827 18.0465 0.455333 17.2521 1.0412 16.6662C1.62708 16.0803 2.42145 15.7508 3.25 15.75H40.75C41.5785 15.7508 42.3729 16.0803 42.9588 16.6662C43.5447 17.2521 43.8742 18.0465 43.875 18.875V25.125C43.8742 25.9535 43.5447 26.7479 42.9588 27.3338C42.3729 27.9197 41.5785 28.2492 40.75 28.25ZM3.25 18.875V25.125H40.75V18.875H3.25Z" fill="black"/>
</svg>
