<svg width="36" height="40" viewBox="0 0 36 40" fill="none" xmlns="http://www.w3.org/2000/svg">
<path d="M18 19C16.5 19 15.5 20 15.5 21.5C15.5 22.5 16.25 23.25 17 23.5L16.25 27H19.5L18.75 23.5C19.75 23.25 20.25 22.5 20.25 21.5C20.5 20 19.5 19 18 19ZM18.25 8.25C16.5 8.25 14.75 9.5 14.75 11.25V15H21.5V11.25C21.25 9.5 20 8.25 18.25 8.25ZM18 0L0.5 7.5V15C0.75 26 7.75 35.75 18 39.75C28.25 35.75 35.25 26 35.5 15V7.5L18 0ZM28 27.5C28 29 27 30 25.5 30H10.5C9 30 8 29 8 27.5V17.5C8 16 9 15 10.5 15H11.25V11.25C11.5 7.75 14.5 5 18 5C21.5 5 24.5 7.75 24.75 11.25V15H25.5C27 15 28 16 28 17.5V27.5Z" fill="black"/>
</svg>
