<svg width="36" height="36" viewBox="0 0 36 36" fill="none" xmlns="http://www.w3.org/2000/svg">
<path d="M26.2917 23.1667H24.6459L24.0626 22.6042C25.3645 21.0916 26.3161 19.31 26.8491 17.3867C27.3822 15.4635 27.4835 13.4462 27.1459 11.4792C26.1667 5.68751 21.3334 1.06251 15.5001 0.354175C13.4493 0.0947289 11.3663 0.307866 9.41054 0.977277C7.45478 1.64669 5.67808 2.75463 4.21639 4.21632C2.75469 5.67802 1.64675 7.45472 0.977338 9.41048C0.307927 11.3662 0.0947899 13.4492 0.354236 15.5C1.06257 21.3333 5.68757 26.1667 11.4792 27.1458C13.4462 27.4834 15.4635 27.3821 17.3868 26.8491C19.31 26.316 21.0917 25.3645 22.6042 24.0625L23.1667 24.6458V26.2917L32.0209 35.1458C32.8751 36 34.2709 36 35.1251 35.1458C35.9792 34.2917 35.9792 32.8958 35.1251 32.0417L26.2917 23.1667ZM13.7917 23.1667C8.60424 23.1667 4.41674 18.9792 4.41674 13.7917C4.41674 8.60417 8.60424 4.41668 13.7917 4.41668C18.9792 4.41668 23.1667 8.60417 23.1667 13.7917C23.1667 18.9792 18.9792 23.1667 13.7917 23.1667Z" fill="black"/>
</svg>
