<svg width="15" height="34" viewBox="0 0 15 34" fill="none" xmlns="http://www.w3.org/2000/svg">
<path d="M11.1252 0.333374C10.2964 0.333374 9.5015 0.662614 8.91545 1.24867C8.3294 1.83472 8.00016 2.62957 8.00016 3.45837C8.00016 4.28718 8.3294 5.08203 8.91545 5.66808C9.5015 6.25413 10.2964 6.58337 11.1252 6.58337C11.954 6.58337 12.7488 6.25413 13.3349 5.66808C13.9209 5.08203 14.2502 4.28718 14.2502 3.45837C14.2502 2.62957 13.9209 1.83472 13.3349 1.24867C12.7488 0.662614 11.954 0.333374 11.1252 0.333374ZM10.3752 10.2709C7.896 10.4792 1.12516 15.875 1.12516 15.875C0.708495 16.1875 0.833496 16.1667 1.16683 16.75C1.50016 17.3125 1.4585 17.3542 1.85433 17.0834C2.271 16.8125 2.9585 16.375 4.10433 15.6667C8.52099 12.8334 4.81266 19.375 2.91683 30.3959C2.16683 35.8542 7.0835 33.0417 8.35433 32.2084C9.60433 31.3959 12.9585 29.0834 13.2918 28.8542C13.7502 28.5417 13.4168 28.2917 13.0627 27.7709C12.8127 27.4167 12.5627 27.6667 12.5627 27.6667C11.2085 28.5625 8.72933 30.4375 8.39599 29.25C8.00016 28.0625 10.5418 19.9167 11.9377 14.3125C12.1668 12.9792 12.7918 10.0625 10.3752 10.2709Z" fill="black"/>
</svg>
