<svg width="25" height="25" viewBox="0 0 25 25" fill="none" xmlns="http://www.w3.org/2000/svg">
<path d="M12.9043 2.10718C7.4043 2.10718 2.9043 6.60718 2.9043 12.1072C2.9043 17.6072 7.4043 22.1072 12.9043 22.1072C18.4043 22.1072 22.9043 17.6072 22.9043 12.1072C22.9043 6.60718 18.4043 2.10718 12.9043 2.10718ZM12.9043 20.1072C8.4943 20.1072 4.9043 16.5172 4.9043 12.1072C4.9043 7.69718 8.4943 4.10718 12.9043 4.10718C17.3143 4.10718 20.9043 7.69718 20.9043 12.1072C20.9043 16.5172 17.3143 20.1072 12.9043 20.1072ZM13.4043 7.10718H11.9043V13.1072L17.1043 16.3072L17.9043 15.0072L13.4043 12.3072V7.10718Z" fill="black"/>
</svg>
