<svg width="25" height="25" viewBox="0 0 25 25" fill="none" xmlns="http://www.w3.org/2000/svg">
<path fill-rule="evenodd" clip-rule="evenodd" d="M12.9044 1.35718C11.6446 1.35718 10.4364 1.85762 9.5456 2.74842C8.6548 3.63922 8.15435 4.8474 8.15435 6.10718C8.15435 7.36696 8.6548 8.57514 9.5456 9.46593C10.4364 10.3567 11.6446 10.8572 12.9044 10.8572C14.1641 10.8572 15.3723 10.3567 16.2631 9.46593C17.1539 8.57514 17.6544 7.36696 17.6544 6.10718C17.6544 4.8474 17.1539 3.63922 16.2631 2.74842C15.3723 1.85762 14.1641 1.35718 12.9044 1.35718ZM9.65435 6.10718C9.65435 5.24522 9.99676 4.41857 10.6063 3.80908C11.2157 3.19959 12.0424 2.85718 12.9044 2.85718C13.7663 2.85718 14.593 3.19959 15.2024 3.80908C15.8119 4.41857 16.1544 5.24522 16.1544 6.10718C16.1544 6.96913 15.8119 7.79578 15.2024 8.40527C14.593 9.01477 13.7663 9.35718 12.9044 9.35718C12.0424 9.35718 11.2157 9.01477 10.6063 8.40527C9.99676 7.79578 9.65435 6.96913 9.65435 6.10718ZM12.9044 12.3572C10.5914 12.3572 8.45935 12.8832 6.88035 13.7712C5.32435 14.6472 4.15435 15.9732 4.15435 17.6072V17.7092C4.15335 18.8712 4.15235 20.3292 5.43135 21.3712C6.06035 21.8832 6.94135 22.2482 8.13135 22.4882C9.32335 22.7302 10.8784 22.8572 12.9044 22.8572C14.9304 22.8572 16.4844 22.7302 17.6784 22.4882C18.8684 22.2482 19.7484 21.8832 20.3784 21.3712C21.6574 20.3292 21.6554 18.8712 21.6544 17.7092V17.6072C21.6544 15.9732 20.4844 14.6472 18.9294 13.7712C17.3494 12.8832 15.2184 12.3572 12.9044 12.3572ZM5.65435 17.6072C5.65435 16.7562 6.27635 15.8322 7.61535 15.0792C8.93135 14.3392 10.7994 13.8572 12.9054 13.8572C15.0094 13.8572 16.8774 14.3392 18.1934 15.0792C19.5334 15.8322 20.1544 16.7562 20.1544 17.6072C20.1544 18.9152 20.1144 19.6512 19.4304 20.2072C19.0604 20.5092 18.4404 20.8042 17.3804 21.0182C16.3234 21.2322 14.8784 21.3572 12.9044 21.3572C10.9304 21.3572 9.48435 21.2322 8.42835 21.0182C7.36835 20.8042 6.74835 20.5092 6.37835 20.2082C5.69435 19.6512 5.65435 18.9152 5.65435 17.6072Z" fill="black"/>
</svg>
