<svg width="25" height="25" viewBox="0 0 25 25" fill="none" xmlns="http://www.w3.org/2000/svg">
<path d="M4.4043 4.10718H10.4043V10.1072H4.4043V4.10718ZM14.4043 4.10718H20.4043V10.1072H14.4043V4.10718ZM4.4043 14.1072H10.4043V20.1072H4.4043V14.1072ZM14.4043 17.1072C14.4043 17.9028 14.7204 18.6659 15.283 19.2285C15.8456 19.7911 16.6086 20.1072 17.4043 20.1072C18.1999 20.1072 18.963 19.7911 19.5256 19.2285C20.0882 18.6659 20.4043 17.9028 20.4043 17.1072C20.4043 16.3115 20.0882 15.5485 19.5256 14.9859C18.963 14.4232 18.1999 14.1072 17.4043 14.1072C16.6086 14.1072 15.8456 14.4232 15.283 14.9859C14.7204 15.5485 14.4043 16.3115 14.4043 17.1072Z" stroke="black" stroke-width="2" stroke-linecap="round" stroke-linejoin="round"/>
</svg>
