<svg width="25" height="24" viewBox="0 0 25 24" fill="none" xmlns="http://www.w3.org/2000/svg">
<g clip-path="url(#clip0_595_2333)">
<path d="M4.44531 4.5H20.5545C20.6998 4.5 20.842 4.54221 20.9637 4.62149C21.0855 4.70077 21.1816 4.81371 21.2404 4.94658C21.2992 5.07946 21.3181 5.22655 21.2948 5.36998C21.2716 5.51341 21.2072 5.64699 21.1094 5.7545L14.9449 12.5355C14.8194 12.6735 14.7499 12.8534 14.7499 13.04V18.3486C14.7499 18.4721 14.7194 18.5936 14.6612 18.7025C14.6029 18.8114 14.5187 18.9042 14.4159 18.9726L11.4159 20.9727C11.303 21.048 11.1717 21.0912 11.0361 21.0977C10.9005 21.1043 10.7657 21.0739 10.646 21.0099C10.5263 20.9458 10.4263 20.8505 10.3565 20.734C10.2867 20.6176 10.2499 20.4844 10.2499 20.3486V13.04C10.2499 12.8534 10.1804 12.6735 10.0549 12.5355L3.89036 5.7545C3.79262 5.64699 3.72822 5.51341 3.70497 5.36998C3.68173 5.22655 3.70065 5.07946 3.75943 4.94658C3.81821 4.81371 3.91432 4.70077 4.03608 4.62149C4.15785 4.54221 4.30001 4.5 4.44531 4.5V4.5Z" stroke="#171520" stroke-width="2" stroke-linecap="round" stroke-linejoin="round"/>
</g>
<defs>
<clipPath id="clip0_595_2333">
<rect width="24" height="24" fill="white" transform="translate(0.5)"/>
</clipPath>
</defs>
</svg>
