<svg width="20" height="18" viewBox="0 0 20 18" fill="none" xmlns="http://www.w3.org/2000/svg">
<path d="M9.76447 17.2083C9.76447 17.2083 0.205078 11.855 0.205078 5.35465C0.205273 4.20574 0.603373 3.09236 1.3317 2.20379C2.06002 1.31523 3.07361 0.706341 4.20013 0.480642C5.32665 0.254943 6.49658 0.426369 7.51099 0.965773C8.52541 1.50518 9.3217 2.37927 9.76448 3.43943L9.76446 3.43943C10.2072 2.37927 11.0035 1.50518 12.0179 0.965777C13.0324 0.426371 14.2023 0.254944 15.3288 0.480642C16.4553 0.70634 17.4689 1.31523 18.1972 2.20379C18.9256 3.09236 19.3237 4.20574 19.3239 5.35465C19.3239 11.855 9.76447 17.2083 9.76447 17.2083Z" fill="#1B4B66"/>
</svg>
